<svg width="277" height="56" viewBox="0 0 277 56" fill="none" xmlns="http://www.w3.org/2000/svg">
<g clip-path="url(#clip0_7618:521)">
<path d="M16.7296 23.5317L27.5061 12.6568L38.2883 23.5374L44.5587 17.2094L27.5061 0L10.4591 17.2037L16.7296 23.5317Z" fill="white"/>
<path d="M12.3015 27.999L6.03107 21.6711L-0.239628 27.9993L6.03076 34.3272L12.3015 27.999Z" fill="white"/>
<path d="M16.7296 32.4683L27.5061 43.3432L38.2878 32.463L44.5618 38.7875L44.5588 38.791L27.5061 56L10.4587 38.7968L10.45 38.7879L16.7296 32.4683Z" fill="white"/>
<path d="M48.9817 34.3302L55.2524 28.002L48.9821 21.6741L42.7114 28.0023L48.9817 34.3302Z" fill="white"/>
<path d="M33.8665 27.9967H33.8691L27.5061 21.5754L22.8038 26.3208H22.8034L22.2634 26.8662L21.1488 27.9909L21.1401 27.9998L21.1488 28.0091L27.5061 34.4246L33.8691 28.0033L33.8721 27.9998L33.8665 27.9967Z" fill="white"/>
<path d="M65.0278 13.5693H78.6658C82.0507 13.5693 84.6102 14.4459 86.345 16.1992C87.6874 17.5571 88.3584 19.24 88.3584 21.2476V21.3325C88.3584 22.1809 88.2546 22.9306 88.0455 23.5808C87.8369 24.2318 87.5581 24.8179 87.2097 25.3411C86.8621 25.8648 86.458 26.3243 85.9987 26.7198C85.539 27.1161 85.045 27.4557 84.516 27.7379C86.2174 28.389 87.5568 29.2723 88.5333 30.3895C89.5094 31.5072 89.998 33.0557 89.998 35.035V35.1195C89.998 36.4773 89.7395 37.6649 89.2218 38.6835C88.7042 39.7012 87.9627 40.55 86.9971 41.229C86.0316 41.9079 84.8706 42.4165 83.5137 42.7562C82.1567 43.0955 80.653 43.2649 79.0029 43.2649H65.0278V13.5693ZM77.3023 25.5746C78.732 25.5746 79.8672 25.3278 80.7074 24.8325C81.548 24.3375 81.9683 23.5383 81.9683 22.4356V22.3507C81.9683 21.3613 81.6036 20.605 80.8752 20.0813C80.1463 19.558 79.0954 19.2962 77.7227 19.2962H71.3329V25.5746H77.3023V25.5746ZM79.0261 37.5384C80.4553 37.5384 81.5756 37.2774 82.389 36.7538C83.2016 36.2305 83.6083 35.4171 83.6083 34.314V34.2296C83.6083 33.2397 83.2297 32.4551 82.4732 31.8748C81.7163 31.2958 80.4974 31.0056 78.8157 31.0056H71.3329V37.5388H79.0261V37.5384Z" fill="white"/>
<path d="M98.1203 13.5693H104.595V43.2657H98.1203V13.5693Z" fill="white"/>
<path d="M114.4 13.5693H120.369L134.157 31.854V13.5693H140.547V43.2657H135.041L120.789 24.3875V43.2657H114.4V13.5693Z" fill="white"/>
<path d="M160.147 13.3575H166.116L178.728 43.2657H171.96L169.269 36.6056H156.826L154.136 43.2657H147.535L160.147 13.3575ZM166.957 30.8354L163.047 21.2056L159.139 30.8354H166.957Z" fill="white"/>
<path d="M185.716 13.5693H191.686L205.474 31.854V13.5693H211.864V43.2657H206.357L192.106 24.3875V43.2657H185.716V13.5693V13.5693Z" fill="white"/>
<path d="M235.163 43.7744C233.004 43.7744 231.001 43.3781 229.151 42.5868C227.301 41.7955 225.704 40.7132 224.359 39.3412C223.013 37.9696 221.962 36.3504 221.206 34.4839C220.449 32.6169 220.071 30.623 220.071 28.5018V28.4173C220.071 26.296 220.449 24.3097 221.206 22.4569C221.962 20.6045 223.013 18.9782 224.359 17.5783C225.704 16.1784 227.316 15.0749 229.193 14.269C231.07 13.4631 233.145 13.0602 235.415 13.0602C236.787 13.0602 238.041 13.1739 239.176 13.3995C240.311 13.6264 241.341 13.9368 242.267 14.3327C243.192 14.729 244.046 15.2098 244.831 15.775C245.615 16.3412 246.344 16.9631 247.017 17.642L242.898 22.4356C241.747 21.3896 240.578 20.5687 239.387 19.9751C238.195 19.3816 236.858 19.0843 235.372 19.0843C234.139 19.0843 232.997 19.3249 231.947 19.8057C230.896 20.2865 229.992 20.9508 229.235 21.7992C228.479 22.6475 227.89 23.6307 227.469 24.7475C227.049 25.8652 226.84 27.0599 226.84 28.3324V28.4169C226.84 29.6893 227.049 30.892 227.469 32.0225C227.89 33.1543 228.47 34.1437 229.214 34.9921C229.956 35.8404 230.853 36.5127 231.904 37.0076C232.956 37.503 234.112 37.7498 235.372 37.7498C237.055 37.7498 238.475 37.4389 239.639 36.8166C240.802 36.1951 241.958 35.3464 243.107 34.2711L247.227 38.4712C246.47 39.2917 245.684 40.0272 244.873 40.677C244.06 41.328 243.17 41.8862 242.203 42.3533C241.237 42.8195 240.178 43.1737 239.03 43.4135C237.88 43.6536 236.591 43.7744 235.163 43.7744Z" fill="white"/>
<path d="M254.846 13.5693H277V19.3816H261.236V25.4057H275.109V31.2175H261.236V37.4539H277.211V43.2657H254.846V13.5693Z" fill="white"/>
</g>
<defs>
<clipPath id="clip0_7618:521">
<rect width="277" height="56" fill="white"/>
</clipPath>
</defs>
</svg>
