<svg width="222" height="47" viewBox="0 0 222 47" fill="none" xmlns="http://www.w3.org/2000/svg">
<g clip-path="url(#clip0_7618:492)">
<path d="M45.6541 29.1885C42.5584 41.7777 29.9823 49.4393 17.564 46.2999C5.15085 43.1612 -2.40585 30.4097 0.691289 17.8213C3.78553 5.23059 16.3617 -2.43175 28.7763 0.706916C41.1938 3.84559 48.7498 16.5985 45.6541 29.1885V29.1885Z" fill="#F7931A"/>
<path d="M33.3924 20.1548C33.8538 17.0279 31.5056 15.347 28.2947 14.2256L29.3363 9.98977L26.7933 9.34721L25.7792 13.4714C25.1107 13.3025 24.424 13.1431 23.7417 12.9852L24.763 8.83388L22.2214 8.19131L21.1791 12.4256C20.6258 12.2979 20.0825 12.1716 19.5552 12.0387L19.5581 12.0254L16.0511 11.1376L15.3746 13.8914C15.3746 13.8914 17.2614 14.3299 17.2215 14.357C18.2515 14.6177 18.4376 15.3088 18.4065 15.8566L17.2201 20.6821C17.2911 20.7005 17.3831 20.7269 17.4845 20.768C17.3997 20.7467 17.3092 20.7232 17.2158 20.7005L15.5527 27.4603C15.4267 27.7775 15.1073 28.2534 14.3873 28.0727C14.4127 28.1102 12.5389 27.6049 12.5389 27.6049L11.2764 30.5564L14.5858 31.3928C15.2014 31.5492 15.8048 31.713 16.3987 31.8672L15.3463 36.1515L17.8865 36.794L18.9287 32.5553C19.6226 32.7462 20.2962 32.9225 20.9553 33.0884L19.9167 37.3074L22.4597 37.9499L23.5121 33.6737C27.8486 34.5058 31.1094 34.1702 32.482 30.1936C33.588 26.9918 32.4269 25.1448 30.1453 23.9405C31.8069 23.552 33.0585 22.4439 33.3924 20.1548V20.1548ZM27.582 28.4157C26.7961 31.6175 21.479 29.8866 19.7552 29.4526L21.1516 23.7767C22.8755 24.2129 28.4034 25.0765 27.582 28.4157ZM28.3686 20.1086C27.6516 23.021 23.226 21.5413 21.7905 21.1785L23.0566 16.0307C24.4921 16.3934 29.1154 17.0705 28.3686 20.1086Z" fill="white"/>
<path d="M67.9201 14.2212C69.7996 14.2212 71.4235 14.5626 72.7881 15.2331C74.1592 15.9102 75.2906 16.8223 76.1981 17.9694C77.0934 19.1223 77.7598 20.4699 78.19 22.0142C78.6173 23.563 78.8317 25.2278 78.8317 27.0101C78.8317 29.7478 78.337 32.3343 77.3382 34.7723C76.3394 37.2141 74.9842 39.332 73.2604 41.1385C71.538 42.9428 69.5041 44.3653 67.1588 45.4162C64.8171 46.4678 62.2712 46.9936 59.5377 46.9936C59.1842 46.9936 58.5627 46.9833 57.6849 46.965C56.807 46.9466 55.7981 46.8548 54.6682 46.6999C53.531 46.539 52.3286 46.3011 51.0589 45.9824C49.7899 45.6695 48.5847 45.2311 47.4497 44.6745L57.5987 1.43811L66.6887 0.00976562L63.0549 15.3528C63.8328 14.9974 64.6165 14.722 65.3987 14.5215C66.1817 14.324 67.0219 14.2212 67.9201 14.2212V14.2212ZM60.2953 39.6823C61.6642 39.6823 62.9542 39.3408 64.166 38.6703C65.3814 37.9991 66.4302 37.0929 67.3087 35.9642C68.1873 34.8303 68.8827 33.5533 69.3897 32.1264C69.8967 30.6996 70.1531 29.211 70.1531 27.6622C70.1531 25.7595 69.8395 24.2753 69.2144 23.2024C68.5893 22.1339 67.4326 21.5964 65.7529 21.5964C65.2025 21.5964 64.4934 21.7029 63.614 21.8931C62.7318 22.095 61.9423 22.5143 61.2347 23.1452L57.3655 39.4392C57.5987 39.4811 57.8051 39.5207 57.9811 39.5582C58.1535 39.5986 58.344 39.6272 58.5338 39.647C58.7344 39.6698 58.964 39.6816 59.2414 39.6816C59.5188 39.6816 59.8658 39.6823 60.2953 39.6823V39.6823Z" fill="white"/>
<path d="M88.2586 46.166H79.5764L86.9085 14.8843H95.6502L88.2586 46.166ZM92.4835 11.073C91.2717 11.073 90.173 10.7072 89.198 9.97435C88.2152 9.24586 87.7284 8.12449 87.7284 6.61317C87.7284 5.78187 87.895 5.00196 88.2253 4.26613C88.5607 3.53177 88.9989 2.89949 89.5479 2.36194C90.0962 1.82879 90.7314 1.40285 91.4528 1.08193C92.1786 0.766156 92.9507 0.608276 93.7735 0.608276C94.9845 0.608276 96.0775 0.973991 97.056 1.70689C98.031 2.44345 98.5213 3.56482 98.5213 5.06807C98.5213 5.9023 98.3555 6.68513 98.0223 7.41949C97.6913 8.15386 97.2531 8.78614 96.704 9.32369C96.1601 9.85757 95.5191 10.282 94.7991 10.6C94.0726 10.9209 93.3034 11.073 92.4835 11.073Z" fill="white"/>
<path d="M103.259 7.09051L112.353 5.66217L110.12 14.8828H119.859L118.1 22.1369H108.42L105.841 33.0789C105.604 33.991 105.469 34.8428 105.431 35.6345C105.388 36.4298 105.488 37.1128 105.722 37.6878C105.956 38.2643 106.375 38.7085 106.983 39.0228C107.589 39.3423 108.456 39.5031 109.593 39.5031C110.53 39.5031 111.442 39.4128 112.324 39.2336C113.202 39.0574 114.09 38.8121 114.99 38.4912L115.637 45.2737C114.464 45.71 113.194 46.0852 111.825 46.401C110.454 46.7212 108.83 46.8754 106.954 46.8754C104.257 46.8754 102.166 46.4693 100.676 45.6608C99.1884 44.8463 98.1367 43.7338 97.5073 42.3253C96.8866 40.9219 96.6092 39.3041 96.6867 37.4814C96.7671 35.6543 97.0387 33.734 97.5073 31.7115L103.259 7.09051V7.09051Z" fill="white"/>
<path d="M119.476 33.6745C119.476 30.9801 119.906 28.4392 120.766 26.0606C121.625 23.6798 122.861 21.5979 124.465 19.8111C126.064 18.0332 128.011 16.6247 130.304 15.5907C132.585 14.5626 135.14 14.0442 137.955 14.0442C139.718 14.0442 141.292 14.2131 142.677 14.5516C144.067 14.8931 145.325 15.3345 146.463 15.8882L143.469 22.7912C142.687 22.4696 141.875 22.1861 141.035 21.9291C140.195 21.6669 139.169 21.5406 137.956 21.5406C135.058 21.5406 132.767 22.5533 131.062 24.572C129.364 26.5923 128.508 29.3116 128.508 32.7227C128.508 34.7444 128.939 36.3791 129.802 37.6297C130.661 38.8804 132.248 39.5024 134.552 39.5024C135.689 39.5024 136.786 39.3819 137.837 39.1469C138.896 38.909 139.831 38.6094 140.655 38.2554L141.303 45.3318C140.205 45.7636 138.994 46.1535 137.666 46.495C136.334 46.8247 134.75 46.9958 132.912 46.9958C130.486 46.9958 128.433 46.636 126.753 45.9273C125.073 45.2077 123.684 44.2522 122.591 43.042C121.491 41.8288 120.702 40.4123 120.214 38.7864C119.725 37.162 119.476 35.4553 119.476 33.6745V33.6745Z" fill="white"/>
<path d="M158.046 46.9958C155.973 46.9958 154.173 46.6756 152.647 46.0419C151.124 45.4081 149.863 44.5188 148.866 43.3659C147.867 42.2188 147.119 40.8595 146.607 39.2931C146.095 37.7274 145.849 35.9936 145.849 34.0938C145.849 31.7108 146.226 29.3285 146.989 26.9528C147.748 24.572 148.874 22.4328 150.365 20.5316C151.844 18.6274 153.669 17.0705 155.817 15.8566C157.963 14.6508 160.431 14.0442 163.204 14.0442C165.239 14.0442 167.029 14.3651 168.577 14.9989C170.118 15.6311 171.387 16.5278 172.39 17.6749C173.382 18.8278 174.136 20.1813 174.643 21.7499C175.154 23.3126 175.406 25.0508 175.406 26.9521C175.406 29.3278 175.034 31.71 174.295 34.093C173.555 36.4643 172.458 38.6087 171.009 40.5143C169.564 42.4156 167.756 43.9717 165.584 45.1805C163.416 46.3892 160.901 46.9958 158.046 46.9958V46.9958ZM162.385 21.5413C161.098 21.5413 159.96 21.9202 158.986 22.6685C158.008 23.4257 157.187 24.3774 156.525 25.5252C155.855 26.6782 155.359 27.9354 155.024 29.3021C154.691 30.6717 154.528 31.9663 154.528 33.1964C154.528 35.1814 154.844 36.7272 155.465 37.8398C156.094 38.9465 157.225 39.5031 158.868 39.5031C160.16 39.5031 161.292 39.1271 162.272 38.3707C163.244 37.6195 164.066 36.667 164.733 35.517C165.398 34.3699 165.899 33.109 166.234 31.7402C166.562 30.375 166.729 29.0729 166.729 27.8451C166.729 25.8652 166.415 24.3157 165.788 23.2046C165.163 22.098 164.027 21.5413 162.385 21.5413Z" fill="white"/>
<path d="M184.867 46.166H176.177L183.509 14.8843H192.255L184.867 46.166V46.166ZM189.085 11.073C187.874 11.073 186.776 10.7072 185.802 9.97435C184.825 9.24586 184.334 8.12449 184.334 6.61317C184.334 5.78187 184.502 5.00196 184.833 4.26613C185.164 3.53177 185.605 2.89949 186.154 2.36194C186.7 1.82879 187.341 1.40285 188.061 1.08193C188.782 0.766156 189.554 0.608276 190.374 0.608276C191.588 0.608276 192.685 0.973991 193.661 1.70689C194.638 2.44345 195.132 3.56482 195.132 5.06807C195.132 5.9023 194.956 6.68513 194.628 7.41949C194.3 8.15386 193.859 8.78614 193.312 9.32369C192.762 9.85757 192.129 10.282 191.407 10.6C190.68 10.9209 189.909 11.073 189.085 11.073V11.073Z" fill="white"/>
<path d="M198.513 16.3068C199.172 16.1114 199.908 15.8764 200.708 15.6209C201.511 15.3653 202.409 15.1274 203.411 14.913C204.403 14.6919 205.522 14.5127 206.752 14.3739C207.983 14.2322 209.385 14.1631 210.943 14.1631C215.522 14.1631 218.679 15.5151 220.421 18.211C222.163 20.9068 222.464 24.5963 221.334 29.2727L217.34 46.163H208.601L212.471 29.6281C212.708 28.5956 212.893 27.5976 213.03 26.6224C213.168 25.6559 213.16 24.8041 212.999 24.0668C212.844 23.3383 212.481 22.742 211.917 22.2801C211.344 21.8255 210.478 21.5971 209.304 21.5971C208.172 21.5971 207.02 21.7205 205.845 21.9584L200.154 46.1623H191.411L198.513 16.3068V16.3068Z" fill="white"/>
</g>
<defs>
<clipPath id="clip0_7618:492">
<rect width="222" height="47" fill="white"/>
</clipPath>
</defs>
</svg>
