<svg width="264" height="47" viewBox="0 0 264 47" fill="none" xmlns="http://www.w3.org/2000/svg">
<path d="M53.2822 13.1215C43.6917 13.1215 36.198 20.3773 36.198 30.0906C36.198 39.804 43.5023 46.9976 53.2822 46.9976C63.062 46.9976 70.4933 39.6798 70.4933 30.0285C70.4933 20.4394 63.189 13.1215 53.2822 13.1215ZM53.3469 39.9974C47.8854 39.9974 43.8834 35.7701 43.8834 30.093C43.8834 24.3514 47.8207 20.1265 53.2822 20.1265C58.8083 20.1265 62.808 24.4159 62.808 30.093C62.808 35.7701 58.8083 39.9974 53.3469 39.9974ZM72.5878 20.5038H77.3519V46.3695H84.9725V13.752H72.5878V20.5038ZM17.0194 20.1241C21.0215 20.1241 24.1967 22.5841 25.4021 26.243H33.4685C32.0067 18.4212 25.5291 13.1215 17.0841 13.1215C7.49363 13.1215 0 20.3773 0 30.093C0 39.8087 7.30431 47 17.0841 47C25.3398 47 31.9444 41.7003 33.4062 33.814H25.4021C24.259 37.4729 21.0838 39.9974 17.0817 39.9974C11.5556 39.9974 7.68295 35.7701 7.68295 30.093C7.68534 24.3514 11.4957 20.1241 17.0194 20.1241ZM217.385 26.938L211.796 26.1188C209.129 25.7415 207.224 24.8578 207.224 22.7751C207.224 20.5038 209.702 19.3694 213.066 19.3694C216.75 19.3694 219.101 20.9457 219.609 23.5322H226.975C226.148 16.9715 221.068 13.1239 213.258 13.1239C205.192 13.1239 199.857 17.2247 199.857 23.0283C199.857 28.5788 203.351 31.7983 210.399 32.8061L215.988 33.6253C218.719 34.0027 220.244 35.0774 220.244 37.0956C220.244 39.6822 217.576 40.7545 213.893 40.7545C209.383 40.7545 206.843 38.925 206.462 36.1498H198.968C199.668 42.5219 204.684 47 213.828 47C222.149 47 227.673 43.2145 227.673 36.7158C227.673 30.9122 223.673 27.8838 217.385 26.938ZM81.1622 0.31526C78.368 0.31526 76.2711 2.3334 76.2711 5.10864C76.2711 7.88389 78.3656 9.90203 81.1622 9.90203C83.9564 9.90203 86.0533 7.88389 86.0533 5.10864C86.0533 2.3334 83.9564 0.31526 81.1622 0.31526ZM192.999 24.9199C192.999 17.8552 188.68 13.1239 179.536 13.1239C170.899 13.1239 166.072 17.4778 165.119 24.1652H172.677C173.058 21.5786 175.09 19.4339 179.409 19.4339C183.284 19.4339 185.189 21.1367 185.189 23.2194C185.189 25.9325 181.695 26.6251 177.376 27.067C171.534 27.6975 164.294 29.7156 164.294 37.2867C164.294 43.1548 168.677 46.9379 175.663 46.9379C181.124 46.9379 184.554 44.6666 186.269 41.0698C186.524 44.2869 188.937 46.3695 192.304 46.3695H196.749V39.6201H193.001V24.9199H192.999ZM185.505 33.1214C185.505 37.4753 181.695 40.6924 177.058 40.6924C174.199 40.6924 171.785 39.4935 171.785 36.9714C171.785 33.7543 175.66 32.8706 179.217 32.4933C182.646 32.178 184.551 31.4209 185.505 29.9688V33.1214ZM145.051 13.1215C140.795 13.1215 137.239 14.8889 134.698 17.8528V0H127.078V46.3695H134.571V42.08C137.112 45.1705 140.733 47 145.051 47C154.196 47 161.119 39.8087 161.119 30.093C161.119 20.3773 154.069 13.1215 145.051 13.1215ZM143.908 39.9974C138.446 39.9974 134.444 35.7701 134.444 30.093C134.444 24.4159 138.509 20.1265 143.97 20.1265C149.496 20.1265 153.369 24.3538 153.369 30.093C153.369 35.7701 149.369 39.9974 143.908 39.9974ZM108.851 13.1215C103.897 13.1215 100.657 15.1396 98.752 17.9794V13.752H91.1936V46.3671H98.8143V28.6409C98.8143 23.6564 101.99 20.1241 106.689 20.1241C111.072 20.1241 113.802 23.2146 113.802 27.6951V46.3695H121.422V27.1291C121.425 18.9251 117.171 13.1215 108.851 13.1215ZM264 29.0206C264 19.6846 257.141 13.1239 247.932 13.1239C238.152 13.1239 230.975 20.4417 230.975 30.093C230.975 40.2506 238.66 47 248.059 47C255.998 47 262.222 42.3308 263.808 35.708H255.869C254.726 38.6098 251.932 40.2506 248.184 40.2506C243.292 40.2506 239.609 37.2222 238.785 31.9225H263.998V29.0206H264ZM239.231 26.4962C240.438 21.9536 243.868 19.7467 247.805 19.7467C252.123 19.7467 255.426 22.2067 256.188 26.4962H239.231Z" fill="white"/>
</svg>
