<svg width="232" height="73" viewBox="0 0 232 73" fill="none" xmlns="http://www.w3.org/2000/svg">
<path d="M33.1184 67.6563C50.1841 67.6563 64.0186 54.0127 64.0186 37.1825C64.0186 20.3522 50.1841 6.70865 33.1184 6.70865C16.0527 6.70865 2.21817 20.3522 2.21817 37.1825C2.21817 54.0127 16.0527 67.6563 33.1184 67.6563Z" fill="#26A17B"/>
<path d="M36.4121 39.9947V39.9898C36.1985 40.0045 35.0956 40.0682 32.6415 40.0682C30.6792 40.0682 29.3031 40.0143 28.8162 39.9898V39.9947C21.27 39.6665 15.6414 38.373 15.6414 36.8199C15.6414 35.2718 21.275 33.9734 28.8162 33.6452V38.7062C29.308 38.7405 30.7239 38.8238 32.6762 38.8238C35.0211 38.8238 36.1935 38.7258 36.4121 38.7062V33.6501C43.9434 33.9832 49.5571 35.2767 49.5571 36.8248C49.5571 38.373 43.9384 39.6664 36.4121 39.9996V39.9947ZM36.4121 33.1258V28.5989H46.9192V21.6957H18.3141V28.5989H28.8212V33.1258C20.2814 33.5129 13.8629 35.1787 13.8629 37.1776C13.8629 39.1765 20.2864 40.8423 28.8212 41.2342V55.746H36.4171V41.2342C44.9419 40.8472 51.3505 39.1814 51.3505 37.1825C51.3505 35.1885 44.9419 33.5178 36.4171 33.1307" fill="white"/>
<path d="M90.2664 23.582V30.9015H97.4797V36.3937H90.2167V47.5299C90.2167 49.9893 91.5928 51.1897 93.6098 51.1897C94.6182 51.1897 95.7857 50.8761 96.7395 50.4058L98.5429 55.844C96.6899 56.574 95.1498 56.8876 93.1875 56.9415C87.5142 57.1521 83.8032 53.9627 83.8032 47.5299V36.3937H78.9247V30.9015H83.8032V24.263L90.2664 23.582ZM214.627 30.5586L215.104 33.5374C217.121 30.3479 219.824 29.8776 222.477 29.8776C225.179 29.8776 227.777 30.9211 229.208 32.3322L226.292 37.8733C224.965 36.7758 223.748 36.1977 221.627 36.1977C218.234 36.1977 215.104 37.9762 215.104 42.7334V56.3291H208.636V30.5488L214.627 30.5586ZM198.775 40.4405C198.353 37.0943 195.7 35.4187 191.989 35.4187C188.491 35.4187 185.625 37.0943 184.671 40.4405H198.775ZM184.567 45.722C184.989 48.9115 187.801 51.2142 192.361 51.2142C194.746 51.2142 197.876 50.3225 199.361 48.8086L203.494 52.8358C200.737 55.6579 196.231 57.0199 192.252 57.0199C183.24 57.0199 177.88 51.5277 177.88 43.2675C177.88 35.4236 183.29 29.7747 191.775 29.7747C200.523 29.7747 205.988 35.1101 204.98 45.722H184.567ZM156.041 19.7311V34.0567C158.376 31.0779 161.238 30.1862 164.208 30.1862C171.63 30.1862 174.919 35.1542 174.919 42.7383V56.334H168.451V42.7922C168.451 38.084 165.957 36.0997 162.509 36.0997C158.689 36.0997 156.041 39.2892 156.041 43.1597V56.3389H149.573V19.736L156.041 19.7311ZM138.862 23.288V30.6076H146.076V36.0997H138.813V47.2359C138.813 49.6954 140.194 50.8957 142.206 50.8957C143.214 50.8957 144.381 50.5821 145.335 50.1118L147.139 55.5501C145.286 56.2801 143.746 56.5936 141.783 56.6475C136.11 56.8582 132.399 53.6638 132.399 47.2359V36.0997H127.521V30.6076H132.399V23.969L138.862 23.288ZM120.993 40.4405C120.57 37.0943 117.918 35.4187 114.207 35.4187C110.709 35.4187 107.843 37.0943 106.889 40.4405H120.993ZM106.785 45.722C107.207 48.9115 110.019 51.2142 114.579 51.2142C116.964 51.2142 120.094 50.3225 121.579 48.8086L125.712 52.8358C122.955 55.6579 118.449 57.0199 114.47 57.0199C105.453 57.0199 100.098 51.5277 100.098 43.2675C100.098 35.4236 105.508 29.7747 113.988 29.7747C122.736 29.7747 128.196 35.1101 127.193 45.722H106.785Z" fill="white"/>
</svg>
