<svg width="165" height="38" viewBox="0 0 165 38" fill="none" xmlns="http://www.w3.org/2000/svg">
<g clip-path="url(#clip0)">
<path d="M50.1484 28.3555V24.6055C50.8281 25.1758 51.5664 25.6055 52.3633 25.8945C53.1602 26.1758 53.9648 26.3164 54.7773 26.3164C55.2539 26.3164 55.668 26.2734 56.0195 26.1875C56.3789 26.1016 56.6758 25.9844 56.9102 25.8359C57.1523 25.6797 57.332 25.5 57.4492 25.2969C57.5664 25.0859 57.625 24.8594 57.625 24.6172C57.625 24.2891 57.5312 23.9961 57.3438 23.7383C57.1562 23.4805 56.8984 23.2422 56.5703 23.0234C56.25 22.8047 55.8672 22.5938 55.4219 22.3906C54.9766 22.1875 54.4961 21.9805 53.9805 21.7695C52.668 21.2227 51.6875 20.5547 51.0391 19.7656C50.3984 18.9766 50.0781 18.0234 50.0781 16.9062C50.0781 16.0312 50.2539 15.2812 50.6055 14.6562C50.957 14.0234 51.4336 13.5039 52.0352 13.0977C52.6445 12.6914 53.3477 12.3945 54.1445 12.207C54.9414 12.0117 55.7852 11.9141 56.6758 11.9141C57.5508 11.9141 58.3242 11.9688 58.9961 12.0781C59.6758 12.1797 60.3008 12.3398 60.8711 12.5586V16.0625C60.5898 15.8672 60.2812 15.6953 59.9453 15.5469C59.6172 15.3984 59.2773 15.2773 58.9258 15.1836C58.5742 15.082 58.2227 15.0078 57.8711 14.9609C57.5273 14.9141 57.1992 14.8906 56.8867 14.8906C56.457 14.8906 56.0664 14.9336 55.7148 15.0195C55.3633 15.0977 55.0664 15.2109 54.8242 15.3594C54.582 15.5078 54.3945 15.6875 54.2617 15.8984C54.1289 16.1016 54.0625 16.332 54.0625 16.5898C54.0625 16.8711 54.1367 17.125 54.2852 17.3516C54.4336 17.5703 54.6445 17.7812 54.918 17.9844C55.1914 18.1797 55.5234 18.375 55.9141 18.5703C56.3047 18.7578 56.7461 18.9531 57.2383 19.1562C57.9102 19.4375 58.5117 19.7383 59.043 20.0586C59.582 20.3711 60.043 20.7266 60.4258 21.125C60.8086 21.5234 61.1016 21.9805 61.3047 22.4961C61.5078 23.0039 61.6094 23.5977 61.6094 24.2773C61.6094 25.2148 61.4297 26.0039 61.0703 26.6445C60.7188 27.2773 60.2383 27.793 59.6289 28.1914C59.0195 28.582 58.3086 28.8633 57.4961 29.0352C56.6914 29.207 55.8398 29.293 54.9414 29.293C54.0195 29.293 53.1406 29.2148 52.3047 29.0586C51.4766 28.9023 50.7578 28.668 50.1484 28.3555ZM74.9961 29H71.4922V27.2773H71.4453C70.6406 28.6211 69.4492 29.293 67.8711 29.293C66.707 29.293 65.7891 28.9648 65.1172 28.3086C64.4531 27.6445 64.1211 26.7617 64.1211 25.6602C64.1211 23.332 65.5 21.9883 68.2578 21.6289L71.5156 21.1953C71.5156 19.8828 70.8047 19.2266 69.3828 19.2266C67.9531 19.2266 66.5938 19.6523 65.3047 20.5039V17.7148C65.8203 17.4492 66.5234 17.2148 67.4141 17.0117C68.3125 16.8086 69.1289 16.707 69.8633 16.707C73.2852 16.707 74.9961 18.4141 74.9961 21.8281V29ZM71.5156 24.125V23.3164L69.3359 23.5977C68.1328 23.7539 67.5312 24.2969 67.5312 25.2266C67.5312 25.6484 67.6758 25.9961 67.9648 26.2695C68.2617 26.5352 68.6602 26.668 69.1602 26.668C69.8555 26.668 70.4219 26.4297 70.8594 25.9531C71.2969 25.4688 71.5156 24.8594 71.5156 24.125ZM86.7539 14.0703C86.2773 13.8828 85.8203 13.7891 85.3828 13.7891C84.1953 13.7891 83.6016 14.4336 83.6016 15.7227V17H86.3438V19.7305H83.6016V29H79.9102V19.7305H77.8945V17H79.9102V15.5117C79.9102 14.1445 80.3555 13.043 81.2461 12.207C82.1367 11.3711 83.3477 10.9531 84.8789 10.9531C85.6289 10.9531 86.2539 11.0312 86.7539 11.1875V14.0703ZM99.918 24.0547H92.0898C92.2148 25.7969 93.3125 26.668 95.3828 26.668C96.7031 26.668 97.8633 26.3555 98.8633 25.7305V28.4023C97.7539 28.9961 96.3125 29.293 94.5391 29.293C92.6016 29.293 91.0977 28.7578 90.0273 27.6875C88.957 26.6094 88.4219 25.1094 88.4219 23.1875C88.4219 21.1953 89 19.6172 90.1562 18.4531C91.3125 17.2891 92.7344 16.707 94.4219 16.707C96.1719 16.707 97.5234 17.2266 98.4766 18.2656C99.4375 19.3047 99.918 20.7148 99.918 22.4961V24.0547ZM96.4844 21.7812C96.4844 20.0625 95.7891 19.2031 94.3984 19.2031C93.8047 19.2031 93.2891 19.4492 92.8516 19.9414C92.4219 20.4336 92.1602 21.0469 92.0664 21.7812H96.4844ZM106.824 29H103.121V11.2344H106.824V29ZM112.816 15.1016C112.191 15.1016 111.68 14.918 111.281 14.5508C110.883 14.1758 110.684 13.7188 110.684 13.1797C110.684 12.625 110.883 12.1719 111.281 11.8203C111.68 11.4688 112.191 11.293 112.816 11.293C113.449 11.293 113.961 11.4688 114.352 11.8203C114.75 12.1719 114.949 12.625 114.949 13.1797C114.949 13.7422 114.75 14.2031 114.352 14.5625C113.961 14.9219 113.449 15.1016 112.816 15.1016ZM114.645 29H110.941V17H114.645V29ZM130.352 29H126.66V22.332C126.66 20.4727 125.996 19.543 124.668 19.543C124.027 19.543 123.5 19.7891 123.086 20.2812C122.672 20.7734 122.465 21.3984 122.465 22.1562V29H118.762V17H122.465V18.8984H122.512C123.395 17.4375 124.68 16.707 126.367 16.707C129.023 16.707 130.352 18.3555 130.352 21.6523V29ZM146.316 29H141.875L138.043 23.0469H137.996V29H134.293V11.2344H137.996V22.543H138.043L141.617 17H146.012L141.711 22.6367L146.316 29ZM162.785 21.7227C162.785 26.7695 160.434 29.293 155.73 29.293C151.168 29.293 148.887 26.8281 148.887 21.8984V12.1953H152.684V21.9453C152.684 24.6641 153.746 26.0234 155.871 26.0234C157.957 26.0234 159 24.7109 159 22.0859V12.1953H162.785V21.7227Z" fill="white"/>
<path d="M39.5056 16.9681L31.3511 2.84608C30.6907 1.70309 29.4726 1 28.1539 1H11.8457C10.5271 1 9.30929 1.70309 8.64844 2.84608L0.494459 16.9681C-0.16482 18.111 -0.16482 19.5175 0.494459 20.6606L8.64844 34.7839C9.30929 35.9268 10.5271 36.63 11.8457 36.63H28.1538C29.4726 36.63 30.6907 35.9268 31.351 34.7839L39.5056 20.6606C40.1648 19.5175 40.1648 18.111 39.5056 16.9681Z" fill="url(#paint0_linear)"/>
<path d="M25.7561 12.2405L23.2589 12.2403C22.763 12.2405 22.3613 12.6422 22.3611 13.1381C22.3611 13.6342 22.7632 14.0363 23.2591 14.0361L25.7563 14.0363C28.3944 14.0365 30.555 16.1997 30.5728 18.8528C30.5728 21.4903 28.4098 23.6512 25.7563 23.6694L23.2591 23.6696C22.7633 23.6694 22.3611 24.0715 22.3611 24.5676C22.3611 25.0637 22.763 25.4656 23.2589 25.4654L25.7622 25.4654C27.5814 25.4531 29.2318 24.7069 30.4276 23.5111C31.6259 22.3128 32.3681 20.6626 32.3685 18.8468C32.3439 15.2037 29.3779 12.2403 25.7561 12.2405Z" fill="white"/>
<path d="M16.8271 12.2431L14.3235 12.2429C10.6812 12.2674 7.71779 15.2338 7.71738 18.8613C7.74194 22.5041 10.7081 25.4673 14.3297 25.4673L16.8271 25.4673C17.0749 25.4675 17.2995 25.367 17.462 25.2044C17.6243 25.0421 17.7249 24.8176 17.7247 24.5693C17.7249 24.0734 17.3228 23.6713 16.8269 23.6715L14.3295 23.6715C11.6916 23.6715 9.53092 21.5083 9.51315 18.8552C9.51356 16.2173 11.6768 14.0566 14.3297 14.0386L16.8271 14.0386C17.3232 14.0386 17.7249 13.6369 17.7249 13.1408C17.7251 12.645 17.3229 12.2429 16.8271 12.2431Z" fill="white"/>
<path d="M23.259 17.9556L16.8252 17.9556C16.3293 17.9554 15.9272 18.3575 15.9274 18.8534C15.9272 19.3493 16.3293 19.7514 16.8252 19.7512L23.259 19.7512C23.5071 19.7512 23.7314 19.6509 23.894 19.4883C24.0565 19.3258 24.1568 19.1015 24.1568 18.8534C24.157 18.3575 23.7549 17.9554 23.259 17.9556Z" fill="white"/>
</g>
<defs>
<linearGradient id="paint0_linear" x1="-9.18048e-08" y1="1.20541" x2="40" y2="37.0675" gradientUnits="userSpaceOnUse">
<stop stop-color="#3B82F6"/>
<stop offset="1" stop-color="#71A0ED"/>
</linearGradient>
<clipPath id="clip0">
<rect width="165" height="38" fill="white"/>
</clipPath>
</defs>
</svg>
